# xmcd CD database file
#
# Track frame offsets:
#	150
#	24900
#	48985
#	72055
#	93062
#	124021
#	138922
#	172619
#	194770
#	207376
#	216636
#	233482
#	253626
#	275805
#	288889
#	309353
#	337093
#
# Disc length: 4731 seconds
#
# Revision: 1
# Processed by: cddbd v1.5.2PL0 Copyright (c) Steve Scherf et al.
# Submitted via: CDex 1.50beta9
#
DISCID=f6127911
DTITLE=Peter Green - A Tribute To His Work
DYEAR=1900
DGENRE=Blues
TTITLE0=Rattlesnake Shake-Innes Sibun
TTITLE1=Ramblin´Pony-Harvey Mandel
TTITLE2=The Green Manalishi-Artur Brown
TTITLE3=Merry Go Round-Luther Grosvenor.Jess Roden,Dave Moore
TTITLE4=Showbiz Blues-Rory Gallagher
TTITLE5=The Supernatural-C.Yangström,U.Ivarsson,Ch.Björklund,F.Marstokk
TTITLE6=Oh Well-Billy Sheehan
TTITLE7=I Loved Another Woman-Larry Mitchell
TTITLE8=Lazy Joker Blues-Ray Gomez,Troy Turner,Bobby Chouinard
TTITLE9=Evil Woman Blues-Ray Gomez.Pete McMahou,B.Chouinard
TTITLE10=The same Way-Mick Abrahams
TTITLE11=Watch Out-Harvey Mandel
TTITLE12=Closing My Eyes-Jennifer Ferguson
TTITLE13=Fleetwood Mac-Stu Hamm,Larry Mitchell,Jonathan Mover
TTITLE14=If You Be My Baby-Southside Johnny
TTITLE15=Drifting-Top Topham,jim McCarty,andy Cleveland
TTITLE16=Black Magic Woman-Larry McCray,Noel Neal,Steve McCray
EXTD=
EXTT0=
EXTT1=
EXTT2=
EXTT3=
EXTT4=
EXTT5=
EXTT6=
EXTT7=
EXTT8=
EXTT9=
EXTT10=
EXTT11=
EXTT12=
EXTT13=
EXTT14=
EXTT15=
EXTT16=
PLAYORDER=
